<svg xmlns="http://www.w3.org/2000/svg" viewBox="0 0 100 100">
  <defs>
    <linearGradient id="orangeGradient" x1="0%" y1="0%" x2="100%" y2="100%">
      <stop offset="0%" style="stop-color:#E04A00"/>
      <stop offset="50%" style="stop-color:#FF5500"/>
      <stop offset="100%" style="stop-color:#FF7A2E"/>
    </linearGradient>
  </defs>
  <!-- Outer gear -->
  <path fill="url(#orangeGradient)" d="M50 5 L55 15 L65 12 L62 22 L72 25 L65 32 L75 40 L65 42 L70 52 L60 50 L58 60 L50 55 L42 60 L40 50 L30 52 L35 42 L25 40 L35 32 L28 25 L38 22 L35 12 L45 15 Z"/>
  <!-- Inner circle -->
  <circle cx="50" cy="37" r="12" fill="#030305"/>
  <!-- Center dot -->
  <circle cx="50" cy="37" r="4" fill="url(#orangeGradient)"/>
  <!-- Wrench handle -->
  <rect x="45" y="50" width="10" height="35" rx="2" fill="url(#orangeGradient)"/>
  <rect x="43" y="80" width="14" height="8" rx="2" fill="#E04A00"/>
</svg>
